<?xml version='1.0' encoding='utf-8'?>
<svg width="296.90mm" height="272.50mm" viewBox="0.0 0.0 296.90 272.50" xmlns="http://www.w3.org/2000/svg" xmlns:dc="http://purl.org/dc/elements/1.1/" xmlns:cc="http://creativecommons.org/ns#" xmlns:rdf="http://www.w3.org/1999/02/22-rdf-syntax-ns#" xmlns:svg="http://www.w3.org/2000/svg" xmlns:xlink="http://www.w3.org/1999/xlink" xmlns:inkscape="http://www.inkscape.org/namespaces/inkscape">
<!--
ElectronicsBox - Closed box with screw on top and mounting holes

Created with Boxes.py (https://festi.info/boxes.py)
Creation date: 2023-04-04 18:06:30
Command line (remove spaces between dashes): boxes ElectronicsBox - -x=132 - -y=79 - -h=50 - -outside=0 - -d1=3 - -d2=3.05 - -outsidemounts=0 - -holedist=6.35 - -thickness=5 - -reference=0
Url: http://www.festi.info/boxes.py/ElectronicsBox?FingerJoint_angle=90.0&FingerJoint_style=rectangular&FingerJoint_surroundingspaces=2.0&FingerJoint_bottom_lip=0.0&FingerJoint_edge_width=1.0&FingerJoint_extra_length=0.0&FingerJoint_finger=2.0&FingerJoint_play=0.0&FingerJoint_space=2.0&FingerJoint_width=1.0&x=132&y=79&h=50&outside=0&triangle=25.0&d1=3&d2=3.05&d3=3.0&outsidemounts=0&holedist=6.35&thickness=5&format=svg&tabs=0.0&qr_code=0&debug=0&labels=0&labels=1&reference=0&inner_corners=loop&burn=0.1&language=en&render=2
Url short: http://www.festi.info/boxes.py/ElectronicsBox?x=132&y=79&h=50&outside=0&d1=3&d2=3.05&outsidemounts=0&holedist=6.35&thickness=5&reference=0
SettingsUrl: http://www.festi.info/boxes.py/ElectronicsBox?FingerJoint_angle=90.0&FingerJoint_style=rectangular&FingerJoint_surroundingspaces=2.0&FingerJoint_bottom_lip=0.0&FingerJoint_edge_width=1.0&FingerJoint_extra_length=0.0&FingerJoint_finger=2.0&FingerJoint_play=0.0&FingerJoint_space=2.0&FingerJoint_width=1.0&x=132&y=79&h=50&outside=0&triangle=25.0&d1=3&d2=3.05&d3=3.0&outsidemounts=0&holedist=6.35&thickness=5&format=svg&tabs=0.0&qr_code=0&debug=0&labels=0&labels=1&reference=0&inner_corners=loop&burn=0.1&language=en&render=2
SettingsUrl short: http://www.festi.info/boxes.py/ElectronicsBox?x=132&y=79&h=50&outside=0&d1=3&d2=3.05&outsidemounts=0&holedist=6.35&thickness=5&reference=0
-->
<title>ElectronicsBox</title>
<metadata>
<rdf:RDF><cc:Work>
<dc:title>Box - ElectronicsBox</dc:title>
<dc:date>2023-04-04 18:06:30</dc:date>
<dc:source>http://www.festi.info/boxes.py/ElectronicsBox?FingerJoint_angle=90.0&amp;FingerJoint_style=rectangular&amp;FingerJoint_surroundingspaces=2.0&amp;FingerJoint_bottom_lip=0.0&amp;FingerJoint_edge_width=1.0&amp;FingerJoint_extra_length=0.0&amp;FingerJoint_finger=2.0&amp;FingerJoint_play=0.0&amp;FingerJoint_space=2.0&amp;FingerJoint_width=1.0&amp;x=132&amp;y=79&amp;h=50&amp;outside=0&amp;triangle=25.0&amp;d1=3&amp;d2=3.05&amp;d3=3.0&amp;outsidemounts=0&amp;holedist=6.35&amp;thickness=5&amp;format=svg&amp;tabs=0.0&amp;qr_code=0&amp;debug=0&amp;labels=0&amp;labels=1&amp;reference=0&amp;inner_corners=loop&amp;burn=0.1&amp;language=en&amp;render=2</dc:source>
<dc:source>http://www.festi.info/boxes.py/ElectronicsBox?x=132&amp;y=79&amp;h=50&amp;outside=0&amp;d1=3&amp;d2=3.05&amp;outsidemounts=0&amp;holedist=6.35&amp;thickness=5&amp;reference=0</dc:source>
<dc:description>Closed box with screw on top and mounting holes

Created with Boxes.py (https://festi.info/boxes.py)
Command line: boxes ElectronicsBox --FingerJoint_angle=90.0 --FingerJoint_style=rectangular --FingerJoint_surroundingspaces=2.0 --FingerJoint_bottom_lip=0.0 --FingerJoint_edge_width=1.0 --FingerJoint_extra_length=0.0 --FingerJoint_finger=2.0 --FingerJoint_play=0.0 --FingerJoint_space=2.0 --FingerJoint_width=1.0 --x=132 --y=79 --h=50 --outside=0 --triangle=25.0 --d1=3 --d2=3.05 --d3=3.0 --outsidemounts=0 --holedist=6.35 --thickness=5 --format=svg --tabs=0.0 --qr_code=0 --debug=0 --labels=0 --labels=1 --reference=0 --inner_corners=loop --burn=0.1
Command line short: boxes ElectronicsBox --x=132 --y=79 --h=50 --outside=0 --d1=3 --d2=3.05 --outsidemounts=0 --holedist=6.35 --thickness=5 --reference=0
Url: http://www.festi.info/boxes.py/ElectronicsBox?FingerJoint_angle=90.0&amp;FingerJoint_style=rectangular&amp;FingerJoint_surroundingspaces=2.0&amp;FingerJoint_bottom_lip=0.0&amp;FingerJoint_edge_width=1.0&amp;FingerJoint_extra_length=0.0&amp;FingerJoint_finger=2.0&amp;FingerJoint_play=0.0&amp;FingerJoint_space=2.0&amp;FingerJoint_width=1.0&amp;x=132&amp;y=79&amp;h=50&amp;outside=0&amp;triangle=25.0&amp;d1=3&amp;d2=3.05&amp;d3=3.0&amp;outsidemounts=0&amp;holedist=6.35&amp;thickness=5&amp;format=svg&amp;tabs=0.0&amp;qr_code=0&amp;debug=0&amp;labels=0&amp;labels=1&amp;reference=0&amp;inner_corners=loop&amp;burn=0.1&amp;language=en&amp;render=2
Url short: http://www.festi.info/boxes.py/ElectronicsBox?x=132&amp;y=79&amp;h=50&amp;outside=0&amp;d1=3&amp;d2=3.05&amp;outsidemounts=0&amp;holedist=6.35&amp;thickness=5&amp;reference=0
SettingsUrl: http://www.festi.info/boxes.py/ElectronicsBox?FingerJoint_angle=90.0&amp;FingerJoint_style=rectangular&amp;FingerJoint_surroundingspaces=2.0&amp;FingerJoint_bottom_lip=0.0&amp;FingerJoint_edge_width=1.0&amp;FingerJoint_extra_length=0.0&amp;FingerJoint_finger=2.0&amp;FingerJoint_play=0.0&amp;FingerJoint_space=2.0&amp;FingerJoint_width=1.0&amp;x=132&amp;y=79&amp;h=50&amp;outside=0&amp;triangle=25.0&amp;d1=3&amp;d2=3.05&amp;d3=3.0&amp;outsidemounts=0&amp;holedist=6.35&amp;thickness=5&amp;format=svg&amp;tabs=0.0&amp;qr_code=0&amp;debug=0&amp;labels=0&amp;labels=1&amp;reference=0&amp;inner_corners=loop&amp;burn=0.1&amp;language=en&amp;render=2
SettingsUrl short: http://www.festi.info/boxes.py/ElectronicsBox?x=132&amp;y=79&amp;h=50&amp;outside=0&amp;d1=3&amp;d2=3.05&amp;outsidemounts=0&amp;holedist=6.35&amp;thickness=5&amp;reference=0
</dc:description>
</cc:Work></rdf:RDF></metadata>
<g id="p-0" style="fill:none;stroke-linecap:round;stroke-linejoin:round;">
  <path d="M 27.600 207.300 H 22.700 C 22.600 207.300 22.700 207.400 22.700 207.300 V 202.500 C 22.700 202.400 22.600 202.500 22.700 202.500 H 32.500 C 32.600 202.500 32.500 202.400 32.500 202.500 V 207.300 C 32.500 207.400 32.600 207.300 32.500 207.300 H 27.600 Z" stroke="rgb(0,0,255)" stroke-width="0.20" />
  <path d="M 134.600 202.500 H 139.500 C 139.600 202.500 139.500 202.400 139.500 202.500 V 207.300 C 139.500 207.400 139.600 207.300 139.500 207.300 H 129.700 C 129.600 207.300 129.700 207.400 129.700 207.300 V 202.500 C 129.700 202.400 129.600 202.500 129.700 202.500 H 134.600 Z" stroke="rgb(0,0,255)" stroke-width="0.20" />
  <text transform="matrix( 1.000 0.000 0.000 1.000 81.100 228.000 )" style="font-family: sans-serif ; font-weight: normal; font-style: normal; fill: rgb(255,0,0)" font-size="4px" text-anchor="middle" dominant-baseline="hanging">Wall 1</text><path d="M 15.100 257.500 H 26.000 C 26.100 257.500 26.000 257.400 26.000 257.500 V 262.400 C 26.000 262.455 26.045 262.500 26.100 262.500 H 36.100 C 36.155 262.500 36.200 262.455 36.200 262.400 V 257.500 C 36.200 257.400 36.100 257.500 36.200 257.500 H 46.000 C 46.100 257.500 46.000 257.400 46.000 257.500 V 262.400 C 46.000 262.455 46.045 262.500 46.100 262.500 H 56.100 C 56.155 262.500 56.200 262.455 56.200 262.400 V 257.500 C 56.200 257.400 56.100 257.500 56.200 257.500 H 66.000 C 66.100 257.500 66.000 257.400 66.000 257.500 V 262.400 C 66.000 262.455 66.045 262.500 66.100 262.500 H 76.100 C 76.155 262.500 76.200 262.455 76.200 262.400 V 257.500 C 76.200 257.400 76.100 257.500 76.200 257.500 H 86.000 C 86.100 257.500 86.000 257.400 86.000 257.500 V 262.400 C 86.000 262.455 86.045 262.500 86.100 262.500 H 96.100 C 96.155 262.500 96.200 262.455 96.200 262.400 V 257.500 C 96.200 257.400 96.100 257.500 96.200 257.500 H 106.000 C 106.100 257.500 106.000 257.400 106.000 257.500 V 262.400 C 106.000 262.455 106.045 262.500 106.100 262.500 H 116.100 C 116.155 262.500 116.200 262.455 116.200 262.400 V 257.500 C 116.200 257.400 116.100 257.500 116.200 257.500 H 126.000 C 126.100 257.500 126.000 257.400 126.000 257.500 V 262.400 C 126.000 262.455 126.045 262.500 126.100 262.500 H 136.100 C 136.155 262.500 136.200 262.455 136.200 262.400 V 257.500 C 136.200 257.400 136.100 257.500 136.200 257.500 H 147.100 H 152.100 C 152.155 257.500 152.200 257.455 152.200 257.400 V 242.400 C 152.200 242.345 152.155 242.300 152.100 242.300 H 147.200 C 147.100 242.300 147.200 242.400 147.200 242.300 V 232.500 C 147.200 232.400 147.100 232.500 147.200 232.500 H 152.100 C 152.155 232.500 152.200 232.455 152.200 232.400 V 222.400 C 152.200 222.345 152.155 222.300 152.100 222.300 H 147.200 C 147.100 222.300 147.200 222.400 147.200 222.300 V 212.500 C 147.200 212.400 147.100 212.500 147.200 212.500 H 152.100 C 152.155 212.500 152.200 212.455 152.200 212.400 V 197.400 C 152.200 197.345 152.155 197.300 152.100 197.300 H 147.100 H 15.100 H 10.100 C 10.045 197.300 10.000 197.345 10.000 197.400 V 212.400 C 10.000 212.455 10.045 212.500 10.100 212.500 H 15.000 C 15.100 212.500 15.000 212.400 15.000 212.500 V 222.300 C 15.000 222.400 15.100 222.300 15.000 222.300 H 10.100 C 10.045 222.300 10.000 222.345 10.000 222.400 V 232.400 C 10.000 232.455 10.045 232.500 10.100 232.500 H 15.000 C 15.100 232.500 15.000 232.400 15.000 232.500 V 242.300 C 15.000 242.400 15.100 242.300 15.000 242.300 H 10.100 C 10.045 242.300 10.000 242.345 10.000 242.400 V 257.400 C 10.000 257.455 10.045 257.500 10.100 257.500 H 15.100" stroke="rgb(0,0,0)" stroke-width="0.20" />
</g>
<g id="p-1" style="fill:none;stroke-linecap:round;stroke-linejoin:round;">
  <path d="M 172.300 207.300 H 167.400 C 167.300 207.300 167.400 207.400 167.400 207.300 V 202.500 C 167.400 202.400 167.300 202.500 167.400 202.500 H 177.200 C 177.300 202.500 177.200 202.400 177.200 202.500 V 207.300 C 177.200 207.400 177.300 207.300 177.200 207.300 H 172.300 Z" stroke="rgb(0,0,255)" stroke-width="0.20" />
  <path d="M 226.300 202.500 H 231.200 C 231.300 202.500 231.200 202.400 231.200 202.500 V 207.300 C 231.200 207.400 231.300 207.300 231.200 207.300 H 221.400 C 221.300 207.300 221.400 207.400 221.400 207.300 V 202.500 C 221.400 202.400 221.300 202.500 221.400 202.500 H 226.300 Z" stroke="rgb(0,0,255)" stroke-width="0.20" />
  <text transform="matrix( 1.000 0.000 0.000 1.000 199.300 228.000 )" style="font-family: sans-serif ; font-weight: normal; font-style: normal; fill: rgb(255,0,0)" font-size="4px" text-anchor="middle" dominant-baseline="hanging">Wall 2</text><path d="M 159.800 257.500 H 174.200 C 174.300 257.500 174.200 257.400 174.200 257.500 V 262.400 C 174.200 262.455 174.245 262.500 174.300 262.500 H 184.300 C 184.355 262.500 184.400 262.455 184.400 262.400 V 257.500 C 184.400 257.400 184.300 257.500 184.400 257.500 H 194.200 C 194.300 257.500 194.200 257.400 194.200 257.500 V 262.400 C 194.200 262.455 194.245 262.500 194.300 262.500 H 204.300 C 204.355 262.500 204.400 262.455 204.400 262.400 V 257.500 C 204.400 257.400 204.300 257.500 204.400 257.500 H 214.200 C 214.300 257.500 214.200 257.400 214.200 257.500 V 262.400 C 214.200 262.455 214.245 262.500 214.300 262.500 H 224.300 C 224.355 262.500 224.400 262.455 224.400 262.400 V 257.500 C 224.400 257.400 224.300 257.500 224.400 257.500 H 238.800 C 238.855 257.500 238.900 257.455 238.900 257.400 V 242.500 C 238.900 242.400 238.800 242.500 238.900 242.500 H 243.800 C 243.855 242.500 243.900 242.455 243.900 242.400 V 232.400 C 243.900 232.345 243.855 232.300 243.800 232.300 H 238.900 C 238.800 232.300 238.900 232.400 238.900 232.300 V 222.500 C 238.900 222.400 238.800 222.500 238.900 222.500 H 243.800 C 243.855 222.500 243.900 222.455 243.900 222.400 V 212.400 C 243.900 212.345 243.855 212.300 243.800 212.300 H 238.900 C 238.800 212.300 238.900 212.400 238.900 212.300 V 197.400 C 238.900 197.345 238.855 197.300 238.800 197.300 H 159.800 C 159.745 197.300 159.700 197.345 159.700 197.400 V 212.300 C 159.700 212.400 159.800 212.300 159.700 212.300 H 154.800 C 154.745 212.300 154.700 212.345 154.700 212.400 V 222.400 C 154.700 222.455 154.745 222.500 154.800 222.500 H 159.700 C 159.800 222.500 159.700 222.400 159.700 222.500 V 232.300 C 159.700 232.400 159.800 232.300 159.700 232.300 H 154.800 C 154.745 232.300 154.700 232.345 154.700 232.400 V 242.400 C 154.700 242.455 154.745 242.500 154.800 242.500 H 159.700 C 159.800 242.500 159.700 242.400 159.700 242.500 V 257.400 C 159.700 257.455 159.745 257.500 159.800 257.500" stroke="rgb(0,0,0)" stroke-width="0.20" />
</g>
<g id="p-2" style="fill:none;stroke-linecap:round;stroke-linejoin:round;">
  <path d="M 172.300 139.600 H 167.400 C 167.300 139.600 167.400 139.700 167.400 139.600 V 134.800 C 167.400 134.700 167.300 134.800 167.400 134.800 H 177.200 C 177.300 134.800 177.200 134.700 177.200 134.800 V 139.600 C 177.200 139.700 177.300 139.600 177.200 139.600 H 172.300 Z" stroke="rgb(0,0,255)" stroke-width="0.20" />
  <path d="M 226.300 134.800 H 231.200 C 231.300 134.800 231.200 134.700 231.200 134.800 V 139.600 C 231.200 139.700 231.300 139.600 231.200 139.600 H 221.400 C 221.300 139.600 221.400 139.700 221.400 139.600 V 134.800 C 221.400 134.700 221.300 134.800 221.400 134.800 H 226.300 Z" stroke="rgb(0,0,255)" stroke-width="0.20" />
  <text transform="matrix( 1.000 0.000 0.000 1.000 199.300 160.300 )" style="font-family: sans-serif ; font-weight: normal; font-style: normal; fill: rgb(255,0,0)" font-size="4px" text-anchor="middle" dominant-baseline="hanging">Wall 4</text><path d="M 159.800 189.800 H 174.200 C 174.300 189.800 174.200 189.700 174.200 189.800 V 194.700 C 174.200 194.755 174.245 194.800 174.300 194.800 H 184.300 C 184.355 194.800 184.400 194.755 184.400 194.700 V 189.800 C 184.400 189.700 184.300 189.800 184.400 189.800 H 194.200 C 194.300 189.800 194.200 189.700 194.200 189.800 V 194.700 C 194.200 194.755 194.245 194.800 194.300 194.800 H 204.300 C 204.355 194.800 204.400 194.755 204.400 194.700 V 189.800 C 204.400 189.700 204.300 189.800 204.400 189.800 H 214.200 C 214.300 189.800 214.200 189.700 214.200 189.800 V 194.700 C 214.200 194.755 214.245 194.800 214.300 194.800 H 224.300 C 224.355 194.800 224.400 194.755 224.400 194.700 V 189.800 C 224.400 189.700 224.300 189.800 224.400 189.800 H 238.800 C 238.855 189.800 238.900 189.755 238.900 189.700 V 174.800 C 238.900 174.700 238.800 174.800 238.900 174.800 H 243.800 C 243.855 174.800 243.900 174.755 243.900 174.700 V 164.700 C 243.900 164.645 243.855 164.600 243.800 164.600 H 238.900 C 238.800 164.600 238.900 164.700 238.900 164.600 V 154.800 C 238.900 154.700 238.800 154.800 238.900 154.800 H 243.800 C 243.855 154.800 243.900 154.755 243.900 154.700 V 144.700 C 243.900 144.645 243.855 144.600 243.800 144.600 H 238.900 C 238.800 144.600 238.900 144.700 238.900 144.600 V 129.700 C 238.900 129.645 238.855 129.600 238.800 129.600 H 159.800 C 159.745 129.600 159.700 129.645 159.700 129.700 V 144.600 C 159.700 144.700 159.800 144.600 159.700 144.600 H 154.800 C 154.745 144.600 154.700 144.645 154.700 144.700 V 154.700 C 154.700 154.755 154.745 154.800 154.800 154.800 H 159.700 C 159.800 154.800 159.700 154.700 159.700 154.800 V 164.600 C 159.700 164.700 159.800 164.600 159.700 164.600 H 154.800 C 154.745 164.600 154.700 164.645 154.700 164.700 V 174.700 C 154.700 174.755 154.745 174.800 154.800 174.800 H 159.700 C 159.800 174.800 159.700 174.700 159.700 174.800 V 189.700 C 159.700 189.755 159.745 189.800 159.800 189.800" stroke="rgb(0,0,0)" stroke-width="0.20" />
</g>
<g id="p-3" style="fill:none;stroke-linecap:round;stroke-linejoin:round;">
  <path d="M 27.600 139.600 H 22.700 C 22.600 139.600 22.700 139.700 22.700 139.600 V 134.800 C 22.700 134.700 22.600 134.800 22.700 134.800 H 32.500 C 32.600 134.800 32.500 134.700 32.500 134.800 V 139.600 C 32.500 139.700 32.600 139.600 32.500 139.600 H 27.600 Z" stroke="rgb(0,0,255)" stroke-width="0.20" />
  <path d="M 134.600 134.800 H 139.500 C 139.600 134.800 139.500 134.700 139.500 134.800 V 139.600 C 139.500 139.700 139.600 139.600 139.500 139.600 H 129.700 C 129.600 139.600 129.700 139.700 129.700 139.600 V 134.800 C 129.700 134.700 129.600 134.800 129.700 134.800 H 134.600 Z" stroke="rgb(0,0,255)" stroke-width="0.20" />
  <text transform="matrix( 1.000 0.000 0.000 1.000 81.100 160.300 )" style="font-family: sans-serif ; font-weight: normal; font-style: normal; fill: rgb(255,0,0)" font-size="4px" text-anchor="middle" dominant-baseline="hanging">Wall 3</text><path d="M 15.100 189.800 H 26.000 C 26.100 189.800 26.000 189.700 26.000 189.800 V 194.700 C 26.000 194.755 26.045 194.800 26.100 194.800 H 36.100 C 36.155 194.800 36.200 194.755 36.200 194.700 V 189.800 C 36.200 189.700 36.100 189.800 36.200 189.800 H 46.000 C 46.100 189.800 46.000 189.700 46.000 189.800 V 194.700 C 46.000 194.755 46.045 194.800 46.100 194.800 H 56.100 C 56.155 194.800 56.200 194.755 56.200 194.700 V 189.800 C 56.200 189.700 56.100 189.800 56.200 189.800 H 66.000 C 66.100 189.800 66.000 189.700 66.000 189.800 V 194.700 C 66.000 194.755 66.045 194.800 66.100 194.800 H 76.100 C 76.155 194.800 76.200 194.755 76.200 194.700 V 189.800 C 76.200 189.700 76.100 189.800 76.200 189.800 H 86.000 C 86.100 189.800 86.000 189.700 86.000 189.800 V 194.700 C 86.000 194.755 86.045 194.800 86.100 194.800 H 96.100 C 96.155 194.800 96.200 194.755 96.200 194.700 V 189.800 C 96.200 189.700 96.100 189.800 96.200 189.800 H 106.000 C 106.100 189.800 106.000 189.700 106.000 189.800 V 194.700 C 106.000 194.755 106.045 194.800 106.100 194.800 H 116.100 C 116.155 194.800 116.200 194.755 116.200 194.700 V 189.800 C 116.200 189.700 116.100 189.800 116.200 189.800 H 126.000 C 126.100 189.800 126.000 189.700 126.000 189.800 V 194.700 C 126.000 194.755 126.045 194.800 126.100 194.800 H 136.100 C 136.155 194.800 136.200 194.755 136.200 194.700 V 189.800 C 136.200 189.700 136.100 189.800 136.200 189.800 H 147.100 H 152.100 C 152.155 189.800 152.200 189.755 152.200 189.700 V 174.700 C 152.200 174.645 152.155 174.600 152.100 174.600 H 147.200 C 147.100 174.600 147.200 174.700 147.200 174.600 V 164.800 C 147.200 164.700 147.100 164.800 147.200 164.800 H 152.100 C 152.155 164.800 152.200 164.755 152.200 164.700 V 154.700 C 152.200 154.645 152.155 154.600 152.100 154.600 H 147.200 C 147.100 154.600 147.200 154.700 147.200 154.600 V 144.800 C 147.200 144.700 147.100 144.800 147.200 144.800 H 152.100 C 152.155 144.800 152.200 144.755 152.200 144.700 V 129.700 C 152.200 129.645 152.155 129.600 152.100 129.600 H 147.100 H 15.100 H 10.100 C 10.045 129.600 10.000 129.645 10.000 129.700 V 144.700 C 10.000 144.755 10.045 144.800 10.100 144.800 H 15.000 C 15.100 144.800 15.000 144.700 15.000 144.800 V 154.600 C 15.000 154.700 15.100 154.600 15.000 154.600 H 10.100 C 10.045 154.600 10.000 154.645 10.000 154.700 V 164.700 C 10.000 164.755 10.045 164.800 10.100 164.800 H 15.000 C 15.100 164.800 15.000 164.700 15.000 164.800 V 174.600 C 15.000 174.700 15.100 174.600 15.000 174.600 H 10.100 C 10.045 174.600 10.000 174.645 10.000 174.700 V 189.700 C 10.000 189.755 10.045 189.800 10.100 189.800 H 15.100" stroke="rgb(0,0,0)" stroke-width="0.20" />
</g>
<g id="p-4" style="fill:none;stroke-linecap:round;stroke-linejoin:round;">
  <path d="M 22.850 115.650 C 22.850 115.918 22.773 116.181 22.628 116.407 C 22.483 116.633 22.276 116.812 22.032 116.923 C 21.787 117.035 21.516 117.074 21.251 117.036 C 20.985 116.998 20.736 116.884 20.533 116.708 C 20.330 116.532 20.182 116.302 20.107 116.044 C 20.031 115.787 20.031 115.513 20.107 115.256 C 20.182 114.998 20.330 114.768 20.533 114.592 C 20.736 114.416 20.985 114.302 21.251 114.264 C 21.516 114.226 21.787 114.265 22.032 114.377 C 22.276 114.488 22.483 114.667 22.628 114.893 C 22.773 115.119 22.850 115.382 22.850 115.650 Z" stroke="rgb(0,0,255)" stroke-width="0.20" />
  <text transform="matrix( 1.000 0.000 0.000 1.000 81.100 80.600 )" style="font-family: sans-serif ; font-weight: normal; font-style: normal; fill: rgb(255,0,0)" font-size="4px" text-anchor="middle" dominant-baseline="hanging">Bottom</text><path d="M 15.100 127.100 H 26.100 C 26.155 127.100 26.200 127.055 26.200 127.000 V 122.100 C 26.200 122.000 26.100 122.100 26.200 122.100 H 36.000 C 36.100 122.100 36.000 122.000 36.000 122.100 V 127.000 C 36.000 127.055 36.045 127.100 36.100 127.100 H 46.100 C 46.155 127.100 46.200 127.055 46.200 127.000 V 122.100 C 46.200 122.000 46.100 122.100 46.200 122.100 H 56.000 C 56.100 122.100 56.000 122.000 56.000 122.100 V 127.000 C 56.000 127.055 56.045 127.100 56.100 127.100 H 66.100 C 66.155 127.100 66.200 127.055 66.200 127.000 V 122.100 C 66.200 122.000 66.100 122.100 66.200 122.100 H 76.000 C 76.100 122.100 76.000 122.000 76.000 122.100 V 127.000 C 76.000 127.055 76.045 127.100 76.100 127.100 H 86.100 C 86.155 127.100 86.200 127.055 86.200 127.000 V 122.100 C 86.200 122.000 86.100 122.100 86.200 122.100 H 96.000 C 96.100 122.100 96.000 122.000 96.000 122.100 V 127.000 C 96.000 127.055 96.045 127.100 96.100 127.100 H 106.100 C 106.155 127.100 106.200 127.055 106.200 127.000 V 122.100 C 106.200 122.000 106.100 122.100 106.200 122.100 H 116.000 C 116.100 122.100 116.000 122.000 116.000 122.100 V 127.000 C 116.000 127.055 116.045 127.100 116.100 127.100 H 126.100 C 126.155 127.100 126.200 127.055 126.200 127.000 V 122.100 C 126.200 122.000 126.100 122.100 126.200 122.100 H 136.000 C 136.100 122.100 136.000 122.000 136.000 122.100 V 127.000 C 136.000 127.055 136.045 127.100 136.100 127.100 H 147.100 H 152.100 C 152.155 127.100 152.200 127.055 152.200 127.000 V 122.000 V 107.500 C 152.200 107.445 152.155 107.400 152.100 107.400 H 147.200 C 147.100 107.400 147.200 107.500 147.200 107.400 V 97.600 C 147.200 97.500 147.100 97.600 147.200 97.600 H 152.100 C 152.155 97.600 152.200 97.555 152.200 97.500 V 87.500 C 152.200 87.445 152.155 87.400 152.100 87.400 H 147.200 C 147.100 87.400 147.200 87.500 147.200 87.400 V 77.600 C 147.200 77.500 147.100 77.600 147.200 77.600 H 152.100 C 152.155 77.600 152.200 77.555 152.200 77.500 V 67.500 C 152.200 67.445 152.155 67.400 152.100 67.400 H 147.200 C 147.100 67.400 147.200 67.500 147.200 67.400 V 57.600 C 147.200 57.500 147.100 57.600 147.200 57.600 H 152.100 C 152.155 57.600 152.200 57.555 152.200 57.500 V 43.000 V 38.000 C 152.200 37.945 152.155 37.900 152.100 37.900 H 147.100 H 136.100 C 136.045 37.900 136.000 37.945 136.000 38.000 V 42.900 C 136.000 43.000 136.100 42.900 136.000 42.900 H 126.200 C 126.100 42.900 126.200 43.000 126.200 42.900 V 38.000 C 126.200 37.945 126.155 37.900 126.100 37.900 H 116.100 C 116.045 37.900 116.000 37.945 116.000 38.000 V 42.900 C 116.000 43.000 116.100 42.900 116.000 42.900 H 106.200 C 106.100 42.900 106.200 43.000 106.200 42.900 V 38.000 C 106.200 37.945 106.155 37.900 106.100 37.900 H 96.100 C 96.045 37.900 96.000 37.945 96.000 38.000 V 42.900 C 96.000 43.000 96.100 42.900 96.000 42.900 H 86.200 C 86.100 42.900 86.200 43.000 86.200 42.900 V 38.000 C 86.200 37.945 86.155 37.900 86.100 37.900 H 76.100 C 76.045 37.900 76.000 37.945 76.000 38.000 V 42.900 C 76.000 43.000 76.100 42.900 76.000 42.900 H 66.200 C 66.100 42.900 66.200 43.000 66.200 42.900 V 38.000 C 66.200 37.945 66.155 37.900 66.100 37.900 H 56.100 C 56.045 37.900 56.000 37.945 56.000 38.000 V 42.900 C 56.000 43.000 56.100 42.900 56.000 42.900 H 46.200 C 46.100 42.900 46.200 43.000 46.200 42.900 V 38.000 C 46.200 37.945 46.155 37.900 46.100 37.900 H 36.100 C 36.045 37.900 36.000 37.945 36.000 38.000 V 42.900 C 36.000 43.000 36.100 42.900 36.000 42.900 H 26.200 C 26.100 42.900 26.200 43.000 26.200 42.900 V 38.000 C 26.200 37.945 26.155 37.900 26.100 37.900 H 15.100 H 10.100 C 10.045 37.900 10.000 37.945 10.000 38.000 V 43.000 V 57.500 C 10.000 57.555 10.045 57.600 10.100 57.600 H 15.000 C 15.100 57.600 15.000 57.500 15.000 57.600 V 67.400 C 15.000 67.500 15.100 67.400 15.000 67.400 H 10.100 C 10.045 67.400 10.000 67.445 10.000 67.500 V 77.500 C 10.000 77.555 10.045 77.600 10.100 77.600 H 15.000 C 15.100 77.600 15.000 77.500 15.000 77.600 V 87.400 C 15.000 87.500 15.100 87.400 15.000 87.400 H 10.100 C 10.045 87.400 10.000 87.445 10.000 87.500 V 97.500 C 10.000 97.555 10.045 97.600 10.100 97.600 H 15.000 C 15.100 97.600 15.000 97.500 15.000 97.600 V 107.400 C 15.000 107.500 15.100 107.400 15.000 107.400 H 10.100 C 10.045 107.400 10.000 107.445 10.000 107.500 V 122.000 V 127.000 C 10.000 127.055 10.045 127.100 10.100 127.100 H 15.100" stroke="rgb(0,0,0)" stroke-width="0.20" />
  <path d="M 140.750 114.250 C 141.018 114.250 141.281 114.327 141.507 114.472 C 141.733 114.617 141.912 114.824 142.023 115.068 C 142.135 115.313 142.174 115.584 142.136 115.849 C 142.098 116.115 141.984 116.364 141.808 116.567 C 141.632 116.770 141.402 116.918 141.144 116.993 C 140.887 117.069 140.613 117.069 140.356 116.993 C 140.098 116.918 139.868 116.770 139.692 116.567 C 139.516 116.364 139.402 116.115 139.364 115.849 C 139.326 115.584 139.365 115.313 139.477 115.068 C 139.588 114.824 139.767 114.617 139.993 114.472 C 140.219 114.327 140.482 114.250 140.750 114.250 Z" stroke="rgb(0,0,255)" stroke-width="0.20" />
  <path d="M 139.350 49.350 C 139.350 49.082 139.427 48.819 139.572 48.593 C 139.717 48.367 139.924 48.188 140.168 48.077 C 140.413 47.965 140.684 47.926 140.949 47.964 C 141.215 48.002 141.464 48.116 141.667 48.292 C 141.870 48.468 142.018 48.698 142.093 48.956 C 142.169 49.213 142.169 49.487 142.093 49.744 C 142.018 50.002 141.870 50.232 141.667 50.408 C 141.464 50.584 141.215 50.698 140.949 50.736 C 140.684 50.774 140.413 50.735 140.168 50.623 C 139.924 50.512 139.717 50.333 139.572 50.107 C 139.427 49.881 139.350 49.618 139.350 49.350 Z" stroke="rgb(0,0,255)" stroke-width="0.20" />
  <path d="M 21.450 50.750 C 21.182 50.750 20.919 50.673 20.693 50.528 C 20.467 50.383 20.288 50.176 20.177 49.932 C 20.065 49.687 20.026 49.416 20.064 49.151 C 20.102 48.885 20.216 48.636 20.392 48.433 C 20.568 48.230 20.798 48.082 21.056 48.007 C 21.313 47.931 21.587 47.931 21.844 48.007 C 22.102 48.082 22.332 48.230 22.508 48.433 C 22.684 48.636 22.798 48.885 22.836 49.151 C 22.874 49.416 22.835 49.687 22.723 49.932 C 22.612 50.176 22.433 50.383 22.207 50.528 C 21.981 50.673 21.718 50.750 21.450 50.750 Z" stroke="rgb(0,0,255)" stroke-width="0.20" />
</g>
<g id="p-5" style="fill:none;stroke-linecap:round;stroke-linejoin:round;">
  <path d="M 164.558 118.667 C 164.558 118.940 164.480 119.207 164.332 119.437 C 164.184 119.667 163.974 119.849 163.725 119.963 C 163.477 120.076 163.201 120.116 162.931 120.077 C 162.660 120.038 162.407 119.923 162.200 119.744 C 161.994 119.565 161.843 119.330 161.766 119.068 C 161.689 118.806 161.689 118.527 161.766 118.265 C 161.843 118.003 161.994 117.769 162.200 117.590 C 162.407 117.411 162.660 117.295 162.931 117.256 C 163.201 117.217 163.477 117.257 163.725 117.370 C 163.974 117.484 164.184 117.666 164.332 117.896 C 164.480 118.126 164.558 118.393 164.558 118.667 Z" stroke="rgb(0,0,255)" stroke-width="0.20" />
  <text transform="matrix( 1.000 0.000 0.000 1.000 220.800 85.600 )" style="font-family: sans-serif ; font-weight: normal; font-style: normal; fill: rgb(255,0,0)" font-size="4px" text-anchor="middle" dominant-baseline="hanging">Top</text><path d="M 154.800 127.100 H 286.800 C 286.855 127.100 286.900 127.055 286.900 127.000 V 48.000 C 286.900 47.945 286.855 47.900 286.800 47.900 H 154.800 C 154.745 47.900 154.700 47.945 154.700 48.000 V 127.000 C 154.700 127.055 154.745 127.100 154.800 127.100" stroke="rgb(0,0,0)" stroke-width="0.20" />
  <path d="M 278.467 117.242 C 278.740 117.242 279.007 117.320 279.237 117.468 C 279.467 117.616 279.649 117.826 279.763 118.075 C 279.876 118.323 279.916 118.599 279.877 118.869 C 279.838 119.140 279.723 119.393 279.544 119.600 C 279.365 119.806 279.130 119.957 278.868 120.034 C 278.606 120.111 278.327 120.111 278.065 120.034 C 277.803 119.957 277.569 119.806 277.390 119.600 C 277.211 119.393 277.095 119.140 277.056 118.869 C 277.017 118.599 277.057 118.323 277.170 118.075 C 277.284 117.826 277.466 117.616 277.696 117.468 C 277.926 117.320 278.193 117.242 278.467 117.242 Z" stroke="rgb(0,0,255)" stroke-width="0.20" />
  <path d="M 277.042 56.333 C 277.042 56.060 277.120 55.793 277.268 55.563 C 277.416 55.333 277.626 55.151 277.875 55.037 C 278.123 54.924 278.399 54.884 278.669 54.923 C 278.940 54.962 279.193 55.077 279.400 55.256 C 279.606 55.435 279.757 55.670 279.834 55.932 C 279.911 56.194 279.911 56.473 279.834 56.735 C 279.757 56.997 279.606 57.231 279.400 57.410 C 279.193 57.589 278.940 57.705 278.669 57.744 C 278.399 57.783 278.123 57.743 277.875 57.630 C 277.626 57.516 277.416 57.334 277.268 57.104 C 277.120 56.874 277.042 56.607 277.042 56.333 Z" stroke="rgb(0,0,255)" stroke-width="0.20" />
  <path d="M 163.133 57.758 C 162.860 57.758 162.593 57.680 162.363 57.532 C 162.133 57.384 161.951 57.174 161.837 56.925 C 161.724 56.677 161.684 56.401 161.723 56.131 C 161.762 55.860 161.877 55.607 162.056 55.400 C 162.235 55.194 162.470 55.043 162.732 54.966 C 162.994 54.889 163.273 54.889 163.535 54.966 C 163.797 55.043 164.031 55.194 164.210 55.400 C 164.389 55.607 164.505 55.860 164.544 56.131 C 164.583 56.401 164.543 56.677 164.430 56.925 C 164.316 57.174 164.134 57.384 163.904 57.532 C 163.674 57.680 163.407 57.758 163.133 57.758 Z" stroke="rgb(0,0,255)" stroke-width="0.20" />
</g>
<g id="p-6" style="fill:none;stroke-linecap:round;stroke-linejoin:round;">
  <path d="M 167.437 40.400 H 174.837 C 174.937 40.400 174.837 40.300 174.837 40.400 V 45.300 C 174.837 45.355 174.882 45.400 174.937 45.400 H 184.937 C 184.992 45.400 185.037 45.355 185.037 45.300 V 40.400 C 185.037 40.300 184.937 40.400 185.037 40.400 H 192.437 C 192.492 40.400 192.537 40.355 192.537 40.300 V 32.900 C 192.537 32.800 192.437 32.900 192.537 32.900 H 197.437 C 197.492 32.900 197.537 32.855 197.537 32.800 V 22.800 C 197.537 22.745 197.492 22.700 197.437 22.700 H 192.537 C 192.437 22.700 192.537 22.800 192.537 22.700 V 15.300 C 192.537 15.245 192.492 15.200 192.437 15.200 C 192.410 15.200 192.385 15.211 192.366 15.229 L 167.366 40.229 C 167.347 40.248 167.337 40.273 167.337 40.300 C 167.337 40.355 167.382 40.400 167.437 40.400 Z" stroke="rgb(0,0,0)" stroke-width="0.20" />
  <path d="M 184.103 30.567 C 184.372 30.567 184.635 30.644 184.860 30.789 C 185.086 30.934 185.265 31.141 185.377 31.385 C 185.488 31.629 185.527 31.900 185.489 32.166 C 185.451 32.432 185.337 32.681 185.161 32.883 C 184.986 33.086 184.755 33.234 184.498 33.310 C 184.240 33.386 183.967 33.386 183.709 33.310 C 183.451 33.234 183.221 33.086 183.045 32.883 C 182.870 32.681 182.756 32.432 182.718 32.166 C 182.679 31.900 182.718 31.629 182.830 31.385 C 182.941 31.141 183.121 30.934 183.347 30.789 C 183.572 30.644 183.835 30.567 184.103 30.567 Z" stroke="rgb(0,0,255)" stroke-width="0.20" />
  <path d="M 184.800 15.000 H 177.400 C 177.300 15.000 177.400 15.100 177.400 15.000 V 10.100 C 177.400 10.045 177.355 10.000 177.300 10.000 H 167.300 C 167.245 10.000 167.200 10.045 167.200 10.100 V 15.000 C 167.200 15.100 167.300 15.000 167.200 15.000 H 159.800 C 159.745 15.000 159.700 15.045 159.700 15.100 V 22.500 C 159.700 22.600 159.800 22.500 159.700 22.500 H 154.800 C 154.745 22.500 154.700 22.545 154.700 22.600 V 32.600 C 154.700 32.655 154.745 32.700 154.800 32.700 H 159.700 C 159.800 32.700 159.700 32.600 159.700 32.700 V 40.100 C 159.700 40.155 159.745 40.200 159.800 40.200 C 159.827 40.200 159.852 40.189 159.871 40.171 L 184.871 15.171 C 184.889 15.152 184.900 15.127 184.900 15.100 C 184.900 15.045 184.855 15.000 184.800 15.000 Z" stroke="rgb(0,0,0)" stroke-width="0.20" />
  <path d="M 168.133 24.833 C 167.865 24.833 167.602 24.756 167.376 24.611 C 167.151 24.466 166.971 24.259 166.860 24.015 C 166.748 23.771 166.709 23.500 166.748 23.234 C 166.786 22.968 166.900 22.719 167.075 22.517 C 167.251 22.314 167.481 22.166 167.739 22.090 C 167.996 22.014 168.270 22.014 168.528 22.090 C 168.785 22.166 169.016 22.314 169.191 22.517 C 169.367 22.719 169.481 22.968 169.519 23.234 C 169.557 23.500 169.518 23.771 169.407 24.015 C 169.295 24.259 169.116 24.466 168.890 24.611 C 168.664 24.756 168.402 24.833 168.133 24.833 Z" stroke="rgb(0,0,255)" stroke-width="0.20" />
  <path d="M 212.774 40.400 H 220.174 C 220.274 40.400 220.174 40.300 220.174 40.400 V 45.300 C 220.174 45.355 220.218 45.400 220.274 45.400 H 230.274 C 230.329 45.400 230.374 45.355 230.374 45.300 V 40.400 C 230.374 40.300 230.274 40.400 230.374 40.400 H 237.774 C 237.829 40.400 237.874 40.355 237.874 40.300 V 32.900 C 237.874 32.800 237.774 32.900 237.874 32.900 H 242.774 C 242.829 32.900 242.874 32.855 242.874 32.800 V 22.800 C 242.874 22.745 242.829 22.700 242.774 22.700 H 237.874 C 237.774 22.700 237.874 22.800 237.874 22.700 V 15.300 C 237.874 15.245 237.829 15.200 237.774 15.200 C 237.747 15.200 237.722 15.211 237.703 15.229 L 212.703 40.229 C 212.684 40.248 212.674 40.273 212.674 40.300 C 212.674 40.355 212.718 40.400 212.774 40.400 Z" stroke="rgb(0,0,0)" stroke-width="0.20" />
  <path d="M 229.440 30.567 C 229.709 30.567 229.971 30.644 230.197 30.789 C 230.423 30.934 230.602 31.141 230.714 31.385 C 230.825 31.629 230.864 31.900 230.826 32.166 C 230.788 32.432 230.674 32.681 230.498 32.883 C 230.322 33.086 230.092 33.234 229.835 33.310 C 229.577 33.386 229.303 33.386 229.046 33.310 C 228.788 33.234 228.558 33.086 228.382 32.883 C 228.206 32.681 228.093 32.432 228.054 32.166 C 228.016 31.900 228.055 31.629 228.167 31.385 C 228.278 31.141 228.457 30.934 228.683 30.789 C 228.909 30.644 229.172 30.567 229.440 30.567 Z" stroke="rgb(0,0,255)" stroke-width="0.20" />
  <path d="M 230.137 15.000 H 222.737 C 222.637 15.000 222.737 15.100 222.737 15.000 V 10.100 C 222.737 10.045 222.692 10.000 222.637 10.000 H 212.637 C 212.582 10.000 212.537 10.045 212.537 10.100 V 15.000 C 212.537 15.100 212.637 15.000 212.537 15.000 H 205.137 C 205.082 15.000 205.037 15.045 205.037 15.100 V 22.500 C 205.037 22.600 205.137 22.500 205.037 22.500 H 200.137 C 200.082 22.500 200.037 22.545 200.037 22.600 V 32.600 C 200.037 32.655 200.082 32.700 200.137 32.700 H 205.037 C 205.137 32.700 205.037 32.600 205.037 32.700 V 40.100 C 205.037 40.155 205.082 40.200 205.137 40.200 C 205.163 40.200 205.189 40.189 205.207 40.171 L 230.207 15.171 C 230.226 15.152 230.237 15.127 230.237 15.100 C 230.237 15.045 230.192 15.000 230.137 15.000 Z" stroke="rgb(0,0,0)" stroke-width="0.20" />
  <path d="M 213.470 24.833 C 213.202 24.833 212.939 24.756 212.713 24.611 C 212.487 24.466 212.308 24.259 212.197 24.015 C 212.085 23.771 212.046 23.500 212.084 23.234 C 212.123 22.968 212.236 22.719 212.412 22.517 C 212.588 22.314 212.818 22.166 213.076 22.090 C 213.333 22.014 213.607 22.014 213.865 22.090 C 214.122 22.166 214.352 22.314 214.528 22.517 C 214.704 22.719 214.818 22.968 214.856 23.234 C 214.894 23.500 214.855 23.771 214.744 24.015 C 214.632 24.259 214.453 24.466 214.227 24.611 C 214.001 24.756 213.738 24.833 213.470 24.833 Z" stroke="rgb(0,0,255)" stroke-width="0.20" />
</g>
</svg>