<?xml version="1.0" encoding="UTF-8" standalone="no"?>
<svg
   width="133.70000076293945mm"
   height="80.00000190734862mm"
   viewBox="-71.56500244140625 -16.454000473022457 133.70000076293945 80.00000190734862"
   version="1.1"
   id="svg138"
   sodipodi:docname="SD8 (3).svg"
   inkscape:version="1.2.2 (b0a84865, 2022-12-01)"
   xmlns:inkscape="http://www.inkscape.org/namespaces/inkscape"
   xmlns:sodipodi="http://sodipodi.sourceforge.net/DTD/sodipodi-0.dtd"
   xmlns="http://www.w3.org/2000/svg"
   xmlns:svg="http://www.w3.org/2000/svg">
  <defs
     id="defs142" />
  <sodipodi:namedview
     id="namedview140"
     pagecolor="#ffffff"
     bordercolor="#000000"
     borderopacity="0.25"
     inkscape:showpageshadow="2"
     inkscape:pageopacity="0.0"
     inkscape:pagecheckerboard="0"
     inkscape:deskcolor="#d1d1d1"
     inkscape:document-units="mm"
     showgrid="false"
     inkscape:zoom="0.97768748"
     inkscape:cx="188.71061"
     inkscape:cy="432.14218"
     inkscape:window-width="1390"
     inkscape:window-height="1205"
     inkscape:window-x="0"
     inkscape:window-y="25"
     inkscape:window-maximized="0"
     inkscape:current-layer="svg138" />
  <title
     id="title132">svgOutput</title>
  <desc
     id="desc134">made with tinkercad</desc>
  <path
     d="M 61.1349983215332 62.54600143432616 L 51.49800109863281 62.54600143432616 L 47.49800109863281 62.54600143432616 L 38.2239990234375 62.54600143432616 L -47.78099822998047 62.54600143432616 L -64.38500213623047 62.54600143432616 L -65.302001953125 62.54600143432616 L -70.56500244140625 62.54600143432616 L -70.56500244140625 -15.454000473022457 L -65.302001953125 -15.454000473022457 L -64.38500213623047 -15.454000473022457 L -60.83000183105469 -15.454000473022457 L -55.49700164794922 -15.454000473022457 L -47.78099822998047 -15.454000473022457 L 38.2239990234375 -15.454000473022457 L 47.49800109863281 -15.454000473022457 L 50.9640007019043 -15.454000473022457 L 51.49800109863281 -15.454000473022457 L 54.46900177001953 -15.454000473022457 L 55.00299835205078 -15.454000473022457 L 59.50299835205078 -15.454000473022457 L 61.1349983215332 -15.454000473022457 L 61.1349983215332 56.45299911499022 L 61.1349983215332 62.54600143432616 M 53.24800109863281 56.45267868041991 L 53.25 56.45299911499022 L 53.79199981689453 56.366001129150376 L 54.279998779296875 56.11299896240233 L 54.667999267578125 55.72000122070311 L 54.91699981689453 55.223999023437486 L 55.00299835205078 54.67499923706053 L 54.91699981689453 54.12599945068358 L 54.667999267578125 53.63000106811522 L 54.29085922241211 53.2480010986328 L 54.279998779296875 53.236999511718736 L 53.79199981689453 52.984001159667955 L 53.25 52.89799880981444 L 52.70800018310547 52.984001159667955 L 52.220001220703125 53.236999511718736 L 52.20914077758789 53.2480010986328 L 51.832000732421875 53.63000106811522 L 51.58300018310547 54.12599945068358 L 51.49800109863281 54.67499923706053 L 51.58300018310547 55.223999023437486 L 51.832000732421875 55.72000122070311 L 52.220001220703125 56.11299896240233 L 52.70800018310547 56.366001129150376 L 53.24800109863281 56.45267868041991 M 54.382999420166016 -7.0359997749328596 L 54.46900177001953 -7.585000038146971 L 54.382999420166016 -8.133999824523924 L 54.3538818359375 -8.19200038909912 L 54.13399887084961 -8.630000114440916 L 53.74599838256836 -9.022999763488768 L 53.257999420166016 -9.276000022888182 L 52.715999603271484 -9.362000465393065 L 52.17499923706055 -9.276000022888182 L 51.68600082397461 -9.022999763488768 L 51.49800109863281 -8.832577705383299 L 51.29800033569336 -8.630000114440916 L 51.07811737060547 -8.19200038909912 L 51.04899978637695 -8.133999824523924 L 50.9640007019043 -7.585000038146971 L 51.04899978637695 -7.0359997749328596 L 51.29800033569336 -6.539999961853026 L 51.49800109863281 -6.337422847747801 L 51.68600082397461 -6.146999835968016 L 52.17499923706055 -5.894000053405761 L 52.715999603271484 -5.807000160217284 L 53.257999420166016 -5.894000053405761 L 53.74599838256836 -6.146999835968016 L 54.13399887084961 -6.539999961853026 L 54.382999420166016 -7.0359997749328596 M -58.8849983215332 18.98500061035156 L -57.518001556396484 18.288999557495114 L -56.433998107910156 17.204000473022457 L -56.015594482421875 16.38400077819824 L -55.73699951171875 15.838000297546383 L -55.49700164794922 14.32299995422363 L -55.73699951171875 12.807999610900875 L -56.433998107910156 11.44099998474121 L -57.518001556396484 10.357000350952147 L -58.8849983215332 9.659999847412108 L -60.400001525878906 9.420000076293944 L -61.915000915527344 9.659999847412108 L -63.28099822998047 10.357000350952147 L -64.36599731445312 11.44099998474121 L -65.06199645996094 12.807999610900875 L -65.302001953125 14.32299995422363 L -65.06199645996094 15.838000297546383 L -64.78380584716797 16.38400077819824 L -64.36599731445312 17.204000473022457 L -63.28099822998047 18.288999557495114 L -61.915000915527344 18.98500061035156 L -60.400001525878906 19.225000381469723 L -58.8849983215332 18.98500061035156 M -60.91699981689453 -7.0359997749328596 L -60.83000183105469 -7.585000038146971 L -60.91699981689453 -8.133999824523924 L -60.94658279418945 -8.19200038909912 L -61.16999816894531 -8.630000114440916 L -61.5629997253418 -9.022999763488768 L -62.05799865722656 -9.276000022888182 L -62.608001708984375 -9.362000465393065 L -63.15700149536133 -9.276000022888182 L -63.652000427246094 -9.022999763488768 L -64.0459976196289 -8.630000114440916 L -64.2685317993164 -8.19200038909912 L -64.2979965209961 -8.133999824523924 L -64.38500213623047 -7.585000038146971 L -64.2979965209961 -7.0359997749328596 L -64.0459976196289 -6.539999961853026 L -63.652000427246094 -6.146999835968016 L -63.15700149536133 -5.894000053405761 L -62.608001708984375 -5.807000160217284 L -62.05799865722656 -5.894000053405761 L -61.5629997253418 -6.146999835968016 L -61.16999816894531 -6.539999961853026 L -60.91699981689453 -7.0359997749328596 M -65.30184173583984 32.76800155639648 L -65.302001953125 32.76900100708007 L -65.06199645996094 34.28400039672851 L -64.36599731445312 35.65100097656249 L -63.28099822998047 36.73600006103515 L -61.915000915527344 37.43199920654296 L -60.400001525878906 37.67200088500976 L -58.8849983215332 37.43199920654296 L -57.518001556396484 36.73600006103515 L -56.433998107910156 35.65100097656249 L -55.73699951171875 34.28400039672851 L -55.49700164794922 32.76900100708007 L -55.49715805053711 32.76800155639648 L -55.73699951171875 31.253999710083 L -56.433998107910156 29.888000488281243 L -57.518001556396484 28.802999496459954 L -58.8849983215332 28.10700035095214 L -60.400001525878906 27.867000579833977 L -61.915000915527344 28.10700035095214 L -63.28099822998047 28.802999496459954 L -64.36599731445312 29.888000488281243 L -65.06199645996094 31.253999710083 L -65.30184173583984 32.76800155639648 M -61.439998626708984 53.366001129150376 L -61.55799865722656 53.2480010986328 L -61.5629997253418 53.243000030517564 L -62.05799865722656 52.99000167846678 L -62.608001708984375 52.90299987792967 L -63.15700149536133 52.99000167846678 L -63.652000427246094 53.243000030517564 L -63.657012939453125 53.2480010986328 L -64.0459976196289 53.63600158691405 L -64.2979965209961 54.131000518798814 L -64.38500213623047 54.68099975585936 L -64.2979965209961 55.229999542236314 L -64.0459976196289 55.72499847412108 L -63.652000427246094 56.11899948120116 L -63.15700149536133 56.370998382568345 L -62.608001708984375 56.458000183105455 L -62.05799865722656 56.370998382568345 L -61.5629997253418 56.11899948120116 L -61.439998626708984 55.995685577392564 L -61.16999816894531 55.72499847412108 L -60.91699981689453 55.229999542236314 L -60.83000183105469 54.68099975585936 L -60.91699981689453 54.131000518798814 L -61.16999816894531 53.63600158691405 L -61.439998626708984 53.366001129150376 M 51.49800109863281 29.702999114990227 L 55.00299835205078 29.702999114990227 L 59.50299835205078 29.702999114990227 L 59.50299835205078 17.597999572753903 L 55.00299835205078 17.597999572753903 L 51.49800109863281 17.597999572753903 L 50.9640007019043 17.597999572753903 L 47.49800109863281 17.597999572753903 L 47.49800109863281 19.225000381469723 L 47.49800109863281 29.702999114990227 L 51.49800109863281 29.702999114990227 M -47.78099822998047 -4.455999851226806 L -47.78099822998047 19.225000381469723 L -47.78099822998047 37.67200088500976 L -47.78099822998047 51.54899978637694 L 38.2239990234375 51.54899978637694 L 38.2239990234375 37.67200088500976 L 38.2239990234375 19.225000381469723 L 38.2239990234375 -4.455999851226806 L -47.78099822998047 -4.455999851226806 z"
     fill="none"
     stroke="rgb(255,0,0)"
     stroke-width="0.001mm"
     id="path136"
     style="stroke-width:0.254;stroke-dasharray:none" />
</svg>
